<svg xmlns="http://www.w3.org/2000/svg" viewBox="0 0 54 38" width="54" height="38">
	<defs>
		<clipPath clipPathUnits="userSpaceOnUse" id="cp1">
			<path d="M-369 -7059L1551 -7059L1551 839L-369 839Z" />
		</clipPath>
		<clipPath clipPathUnits="userSpaceOnUse" id="cp2">
			<path d="M53.56 37.89L-1 37.89L-1 0L53.56 0L53.56 37.89Z" />
		</clipPath>
	</defs>
	<style>
		tspan { white-space:pre }
		.shp0 { fill: #4a4e48 } 
	</style>
	<g id="Home Page" clip-path="url(#cp1)">
		<g id="Review">
			<g id="Left" style="opacity: 0.271">
				<g id="Group 2">
					<g id="Group 1" clip-path="url(#cp2)">
						<path id="Path 1" class="shp0" d="M17.85 37.33C18.57 38.08 19.77 38.08 20.52 37.33C21.25 36.61 21.25 35.41 20.52 34.68L6.97 21.13L51.69 21.13C52.73 21.13 53.56 20.3 53.56 19.26C53.56 18.22 52.73 17.36 51.69 17.36L6.97 17.36L20.52 3.84C21.25 3.09 21.25 1.88 20.52 1.17C19.77 0.42 18.57 0.42 17.85 1.17L1.09 17.92C0.34 18.65 0.34 19.85 1.09 20.56L17.85 37.33Z" />
					</g>
				</g>
			</g>
		</g>
	</g>
</svg>