<svg xmlns="http://www.w3.org/2000/svg" viewBox="0 0 101 101" width="101" height="101">
	<defs>
		<clipPath clipPathUnits="userSpaceOnUse" id="cp1">
			<path d="M-510 -1227L1410 -1227L1410 6671L-510 6671Z" />
		</clipPath>
	</defs>
	<style>
		tspan { white-space:pre }
		.shp0 { fill: #ffffff } 
	</style>
	<g id="Home Page" clip-path="url(#cp1)">
		<g id="Service">
			<g id="Icon1">
				<path id="Path 1202" fill-rule="evenodd" class="shp0" d="M47.5 87.71L50.01 90.22L41.97 97.58C39.84 99.71 36.94 100.92 33.86 100.92C30.77 100.92 27.87 99.71 25.69 97.53L3.38 75.23C1.2 73.05 0 70.15 0 67.06C0 63.98 1.2 61.07 3.38 58.89L10.75 51.53L22.99 63.76L16.47 70.28C15.82 70.92 15.82 71.97 16.47 72.61L22.09 78.23L22.75 76.25C24.08 72.25 27.49 69.3 31.64 68.54L42.67 66.53L42.67 65.68C38.62 63.33 35.66 59.31 34.73 54.57C31.73 53.95 29.47 51.29 29.47 48.11L29.47 36.56C29.47 24.73 39.09 15.1 50.92 15.1C62.75 15.1 72.37 24.73 72.37 36.56L72.37 56.36C72.37 59.09 70.15 61.31 67.42 61.31L64.09 61.31C62.76 63.07 61.09 64.56 59.17 65.68L59.17 66.53L70.2 68.54C74.35 69.3 77.76 72.25 79.09 76.25L82.92 87.71L47.5 87.71ZM69.07 53.79C68.47 54.14 67.82 54.43 67.11 54.57C66.88 55.77 66.51 56.92 66.04 58.01L67.42 58.01C68.33 58.01 69.07 57.27 69.07 56.36L69.07 53.79ZM67.42 50.95C68.41 50.38 69.07 49.32 69.07 48.11C69.07 46.89 68.41 45.84 67.42 45.27L67.42 50.95ZM34.42 45.27C33.44 45.84 32.77 46.89 32.77 48.11C32.77 49.32 33.44 50.38 34.42 50.95L34.42 45.27ZM36.07 39.86C40.95 39.86 45.54 37.96 48.99 34.5L50.92 32.57L52.85 34.5C56.31 37.96 60.89 39.86 65.77 39.86L67.42 39.86L67.42 41.74C68.01 41.89 68.56 42.13 69.07 42.42L69.07 36.56C69.07 26.55 60.93 18.4 50.92 18.4C40.91 18.4 32.77 26.55 32.77 36.56L32.77 42.42C33.28 42.13 33.83 41.89 34.42 41.74L34.42 39.86L36.07 39.86ZM37.72 51.41C37.72 58.69 43.64 64.61 50.92 64.61C54.26 64.61 57.3 63.36 59.62 61.31L50.92 61.31L50.92 58.01L62.34 58.01C63.47 56.07 64.12 53.81 64.12 51.41L64.12 43.09C59.17 42.72 54.55 40.68 50.92 37.23C47.3 40.68 42.68 42.72 37.72 43.09L37.72 51.41ZM55.87 67.15C54.31 67.64 52.65 67.91 50.92 67.91C49.2 67.91 47.53 67.64 45.97 67.15L45.97 67.23L50.92 72.18L55.87 67.23L55.87 67.15ZM24.7 80.84L28.3 84.45C28.92 85.07 30.01 85.07 30.63 84.45L37.77 77.99L44.2 84.41L78.34 84.41L75.96 77.3C75.01 74.44 72.58 72.33 69.61 71.79L58.08 69.69L50.92 76.85L43.76 69.69L32.23 71.78C29.26 72.33 26.83 74.44 25.88 77.29L24.7 80.84ZM8.96 57.98L16.52 65.55L18.32 63.76L10.75 56.19L8.96 57.98ZM40.63 94.33L33.03 86.73L32.91 86.84C32.03 87.72 30.79 88.23 29.47 88.23C28.14 88.23 26.9 87.72 25.96 86.78L14.13 74.95C12.2 73.02 12.2 69.88 14.13 67.95L14.19 67.89L6.62 60.32L5.71 61.23C4.16 62.79 3.3 64.86 3.3 67.06C3.3 69.27 4.16 71.34 5.71 72.9L28.02 95.2C29.58 96.76 31.65 97.62 33.85 97.62C36.06 97.62 38.13 96.76 39.69 95.2L40.63 94.33ZM45.24 90.11L37.66 82.54L35.48 84.51L43.07 92.1L45.24 90.11Z" />
				<path id="Path 1203" fill-rule="evenodd" class="shp0" d="M95.73 0C98.46 0 100.68 2.22 100.68 4.95L100.68 18.15C100.68 20.88 98.46 23.1 95.73 23.1L91.25 23.1L75.33 33.06L77.04 23.1L72.63 23.1C69.9 23.1 67.68 20.88 67.68 18.15L67.68 4.95C67.68 2.22 69.9 0 72.63 0L95.73 0ZM97.38 4.95C97.38 4.04 96.64 3.3 95.73 3.3L72.63 3.3C71.72 3.3 70.98 4.04 70.98 4.95L70.98 18.15C70.98 19.06 71.72 19.8 72.63 19.8L80.95 19.8L79.83 26.35L90.31 19.8L95.73 19.8C96.64 19.8 97.38 19.06 97.38 18.15L97.38 4.95Z" />
				<path id="Rectangle 92" class="shp0" d="M74.28 6.6L94.08 6.6L94.08 9.9L74.28 9.9L74.28 6.6Z" />
				<path id="Rectangle 93" class="shp0" d="M74.28 13.2L87.48 13.2L87.48 16.5L74.28 16.5L74.28 13.2Z" />
				<path id="Rectangle 94" class="shp0" d="M90.78 13.2L94.08 13.2L94.08 16.5L90.78 16.5L90.78 13.2Z" />
				<path id="Path 1204" class="shp0" d="M50.92 4.95C29.36 4.95 10.79 19.87 5.96 40.67L2.83 35.46L0 37.16L5.8 46.82L15.47 41.02L13.77 38.19L9.3 40.87C13.97 21.84 31.09 8.25 50.92 8.25C55.26 8.25 59.53 8.89 63.64 10.17L64.61 7.01C60.19 5.64 55.59 4.95 50.92 4.95L50.92 4.95Z" />
				<path id="Path 1205" class="shp0" d="M99.88 35.73L90.21 29.92L84.42 39.59L87.25 41.29L90.13 36.48C91.65 40.92 92.43 45.57 92.43 50.34C92.43 60.16 89.03 69.75 82.86 77.36L85.42 79.44C92.07 71.25 95.73 60.91 95.73 50.34C95.73 45.29 94.92 40.37 93.33 35.65L98.18 38.55L99.88 35.73Z" />
			</g>
		</g>
	</g>
</svg>