<svg xmlns="http://www.w3.org/2000/svg" viewBox="0 0 27 26" width="27" height="26">
	<defs>
		<clipPath clipPathUnits="userSpaceOnUse" id="cp1">
			<path d="M-1500 -7556L420 -7556L420 342L-1500 342Z" />
		</clipPath>
	</defs>
	<style>
		tspan { white-space:pre }
		.shp0 { fill: #ffffff } 
	</style>
	<g id="Home Page" clip-path="url(#cp1)">
		<g id="Footer">
			<path id="Path 1199" fill-rule="evenodd" class="shp0" d="M26.58 2.24L17.64 25.11C17.42 25.66 16.91 26 16.34 26C16.28 26 16.22 26 16.16 25.99C15.52 25.91 15.03 25.43 14.94 24.78L13.43 13.61C13.43 13.59 13.41 13.57 13.39 13.57L2.21 12.06C1.57 11.97 1.09 11.48 1.01 10.84C0.93 10.19 1.29 9.6 1.89 9.36L24.76 0.42C25.29 0.22 25.86 0.34 26.26 0.73C26.26 0.73 26.26 0.73 26.26 0.74C26.26 0.74 26.27 0.74 26.27 0.74C26.66 1.14 26.78 1.71 26.58 2.24ZM2.4 10.72C2.4 10.72 13.71 12.25 13.77 12.27L23.78 2.26L2.39 10.62C2.36 10.63 2.35 10.64 2.36 10.67C2.36 10.71 2.37 10.71 2.4 10.72ZM24.74 3.22L14.73 13.22C14.75 13.29 16.28 24.6 16.28 24.6C16.29 24.63 16.29 24.64 16.32 24.64C16.36 24.65 16.36 24.64 16.37 24.61L24.74 3.22Z" />
		</g>
	</g>
</svg>