<svg xmlns="http://www.w3.org/2000/svg" viewBox="0 0 114 103" width="114" height="103">
	<defs>
		<clipPath clipPathUnits="userSpaceOnUse" id="cp1">
			<path d="M-1040 -3479L880 -3479L880 4419L-1040 4419Z" />
		</clipPath>
	</defs>
	<style>
		tspan { white-space:pre }
		.shp0 { fill: #63cef7 } 
		.shp1 { fill: #f2f2fc } 
		.shp2 { fill: #61729b } 
		.shp3 { fill: #ffb954 } 
		.shp4 { fill: #000000 } 
	</style>
	<g id="Home Page" clip-path="url(#cp1)">
		<g id="Experience">
			<g id="Icon4">
				<path id="Path 1251" class="shp0" d="M111.79 7.21L111.79 86.93C111.79 89.38 109.8 91.36 107.36 91.36L7.26 91.36C4.81 91.36 2.83 89.38 2.83 86.93L2.83 7.21C2.83 4.76 4.81 2.78 7.26 2.78L107.36 2.78C109.8 2.78 111.79 4.76 111.79 7.21L111.79 7.21Z" />
				<path id="Rectangle 106" class="shp1" d="M16.12 11.63L102.93 11.63L102.93 82.5L16.12 82.5L16.12 11.63Z" />
				<path id="Rectangle 107" class="shp2" d="M85.21 91.36L102.93 91.36L102.93 100.22L85.21 100.22L85.21 91.36Z" />
				<path id="Path 1252" class="shp3" d="M79.45 47.07C79.45 59.3 69.54 69.21 57.31 69.21C45.08 69.21 35.16 59.3 35.16 47.07C35.16 34.84 45.08 24.92 57.31 24.92C69.54 24.92 79.45 34.84 79.45 47.07L79.45 47.07Z" />
				<path id="Rectangle 108" class="shp2" d="M11.69 91.36L29.41 91.36L29.41 100.22L11.69 100.22L11.69 91.36Z" />
				<path id="Path 1253" class="shp2" d="M20.55 55.93L20.55 73.64L11.69 73.64L11.69 55.93L20.55 55.93Z" />
				<path id="Path 1254" class="shp2" d="M20.55 20.49L20.55 38.21L11.69 38.21L11.69 20.49L20.55 20.49Z" />
				<path id="Path 1255" class="shp4" d="M94.07 62.57C95.29 62.57 96.28 61.58 96.28 60.35C96.28 59.13 95.29 58.14 94.07 58.14C92.85 58.14 91.85 59.13 91.85 60.35C91.85 61.58 92.85 62.57 94.07 62.57L94.07 62.57Z" />
				<path id="Path 1256" fill-rule="evenodd" class="shp4" d="M107.36 0.56C111.02 0.56 114 3.54 114 7.21L114 86.93C114 90.59 111.02 93.57 107.36 93.57L105.14 93.57L105.14 100.22C105.14 101.44 104.15 102.43 102.93 102.43L85.21 102.43C83.99 102.43 83 101.44 83 100.22L83 93.57L31.62 93.57L31.62 100.22C31.62 101.44 30.63 102.43 29.41 102.43L11.69 102.43C10.47 102.43 9.47 101.44 9.47 100.22L9.47 93.57L7.26 93.57C3.6 93.57 0.62 90.59 0.62 86.93L0.62 7.21C0.62 3.54 3.6 0.56 7.26 0.56L107.36 0.56ZM27.19 93.57L13.9 93.57L13.9 98L27.19 98L27.19 93.57ZM100.71 93.57L87.43 93.57L87.43 98L100.71 98L100.71 93.57ZM109.57 7.21C109.57 5.98 108.58 4.99 107.36 4.99L7.26 4.99C6.04 4.99 5.05 5.98 5.05 7.21L5.05 86.93C5.05 88.15 6.04 89.14 7.26 89.14L107.36 89.14C108.58 89.14 109.57 88.15 109.57 86.93L109.57 7.21Z" />
				<path id="Path 1257" fill-rule="evenodd" class="shp4" d="M102.93 9.42C104.15 9.42 105.14 10.41 105.14 11.63L105.14 82.5C105.14 83.72 104.15 84.71 102.93 84.71L16.12 84.71C14.9 84.71 13.9 83.72 13.9 82.5L13.9 75.86L11.69 75.86C10.47 75.86 9.47 74.86 9.47 73.64L9.47 55.93C9.47 54.7 10.47 53.71 11.69 53.71L13.9 53.71L13.9 40.42L11.69 40.42C10.47 40.42 9.47 39.43 9.47 38.21L9.47 20.49C9.47 19.27 10.47 18.28 11.69 18.28L13.9 18.28L13.9 11.63C13.9 10.41 14.9 9.42 16.12 9.42L102.93 9.42ZM13.9 35.99L18.33 35.99L18.33 22.71L13.9 22.71L13.9 35.99ZM13.9 71.43L18.33 71.43L18.33 58.14L13.9 58.14L13.9 71.43ZM100.71 13.85L18.33 13.85L18.33 18.28L20.55 18.28C21.77 18.28 22.76 19.27 22.76 20.49L22.76 38.21C22.76 39.43 21.77 40.42 20.55 40.42L18.33 40.42L18.33 53.71L20.55 53.71C21.77 53.71 22.76 54.7 22.76 55.93L22.76 73.64C22.76 74.86 21.77 75.86 20.55 75.86L18.33 75.86L18.33 80.28L100.71 80.28L100.71 13.85Z" />
				<path id="Path 1258" fill-rule="evenodd" class="shp4" d="M57.31 71.43C43.88 71.43 32.95 60.5 32.95 47.07C32.95 33.64 43.88 22.71 57.31 22.71C70.74 22.71 81.67 33.64 81.67 47.07C81.67 60.5 70.74 71.43 57.31 71.43ZM57.31 27.14C46.32 27.14 37.38 36.08 37.38 47.07C37.38 58.06 46.32 67 57.31 67C68.3 67 77.24 58.06 77.24 47.07C77.24 36.08 68.3 27.14 57.31 27.14Z" />
				<path id="Path 1259" class="shp4" d="M57.31 53.71C56.36 53.71 55.34 53.12 54.43 52.04C53.65 51.1 52.25 50.98 51.31 51.77C50.38 52.55 50.26 53.95 51.04 54.89C52.23 56.29 53.62 57.27 55.09 57.77L55.09 60.35C55.09 61.58 56.09 62.57 57.31 62.57C58.53 62.57 59.52 61.58 59.52 60.35L59.52 57.76C62.1 56.84 63.95 54.38 63.95 51.5C63.95 47.83 60.97 44.85 57.31 44.85C56.09 44.85 55.09 43.86 55.09 42.64C55.09 41.42 56.09 40.42 57.31 40.42C58.09 40.42 58.92 40.82 59.7 41.58C60.58 42.43 61.98 42.41 62.83 41.53C63.69 40.65 63.66 39.25 62.78 38.4C61.66 37.31 60.53 36.7 59.52 36.36L59.52 33.78C59.52 32.56 58.53 31.57 57.31 31.57C56.09 31.57 55.09 32.56 55.09 33.78L55.09 36.38C52.52 37.29 50.66 39.75 50.66 42.64C50.66 46.3 53.64 49.28 57.31 49.28C58.53 49.28 59.52 50.27 59.52 51.5C59.52 52.72 58.53 53.71 57.31 53.71L57.31 53.71Z" />
				<path id="Path 1260" class="shp4" d="M94.07 53.71C95.29 53.71 96.28 52.72 96.28 51.5L96.28 33.78C96.28 32.56 95.29 31.57 94.07 31.57C92.85 31.57 91.85 32.56 91.85 33.78L91.85 51.5C91.85 52.72 92.85 53.71 94.07 53.71L94.07 53.71Z" />
			</g>
		</g>
	</g>
</svg>