<svg xmlns="http://www.w3.org/2000/svg" viewBox="0 0 106 122" width="106" height="122">
	<defs>
		<clipPath clipPathUnits="userSpaceOnUse" id="cp1">
			<path d="M-1059 -3157L861 -3157L861 4741L-1059 4741Z" />
		</clipPath>
	</defs>
	<style>
		tspan { white-space:pre }
		.shp0 { fill: #efedee } 
		.shp1 { fill: #cfc9cc } 
		.shp2 { fill: #7e6f78 } 
		.shp3 { fill: #72ceed } 
		.shp4 { fill: #14ade0 } 
		.shp5 { fill: #dfdbdd } 
		.shp6 { fill: #f7e786 } 
		.shp7 { fill: #f2d835 } 
		.shp8 { fill: #000000 } 
	</style>
	<g id="Home Page" clip-path="url(#cp1)">
		<g id="Experience">
			<g id="Icon2">
				<path id="Path 1281" class="shp0" d="M88.56 45.84C88.56 69.8 69.13 89.23 45.16 89.23C21.2 89.23 1.77 69.8 1.77 45.84C1.77 21.87 21.2 2.44 45.16 2.44C69.13 2.44 88.56 21.87 88.56 45.84L88.56 45.84Z" />
				<path id="Path 1282" class="shp1" d="M54.6 81.68C30.63 81.68 11.2 62.26 11.2 38.29C11.2 26.75 15.71 16.27 23.05 8.49C10.31 16.05 1.77 29.95 1.77 45.84C1.77 69.8 21.2 89.23 45.16 89.23C57.59 89.23 68.8 84.01 76.71 75.63C70.24 79.48 62.68 81.68 54.6 81.68L54.6 81.68Z" />
				<path id="Path 1283" class="shp2" d="M69.69 45.84C69.69 59.38 58.71 70.36 45.16 70.36C31.62 70.36 20.64 59.38 20.64 45.84C20.64 32.29 31.62 21.31 45.16 21.31C58.71 21.31 69.69 32.29 69.69 45.84L69.69 45.84Z" />
				<path id="Path 1284" class="shp3" d="M62.15 45.84C62.15 55.21 54.54 62.82 45.16 62.82C35.79 62.82 28.18 55.21 28.18 45.84C28.18 36.46 35.79 28.85 45.16 28.85C54.54 28.85 62.15 36.46 62.15 45.84L62.15 45.84Z" />
				<path id="Path 1285" class="shp4" d="M52.71 57.16C43.33 57.16 35.73 49.55 35.73 40.18C35.73 36.34 37.01 32.8 39.15 29.95C32.74 32.38 28.18 38.57 28.18 45.84C28.18 55.21 35.79 62.82 45.16 62.82C50.7 62.82 55.62 60.16 58.72 56.06C56.85 56.77 54.83 57.16 52.71 57.16L52.71 57.16Z" />
				<path id="Rectangle 114" class="shp5" d="M39.5 89.23L50.83 89.23L50.83 109.99L39.5 109.99L39.5 89.23Z" />
				<path id="Path 1286" class="shp2" d="M56.49 99.81L56.49 109.99L33.84 109.99L33.84 99.81C27.08 103.72 22.52 111.04 22.52 119.42L67.81 119.42C67.81 111.04 63.25 103.72 56.49 99.81L56.49 99.81Z" />
				<path id="Path 1287" class="shp0" d="M54.6 42.06C54.6 44.15 52.91 45.84 50.83 45.84C48.74 45.84 47.05 44.15 47.05 42.06C47.05 39.98 48.74 38.29 50.83 38.29C52.91 38.29 54.6 39.98 54.6 42.06L54.6 42.06Z" />
				<path id="Path 1288" class="shp6" d="M103.65 79.8C103.65 90.22 95.21 98.67 84.79 98.67C74.37 98.67 65.92 90.22 65.92 79.8C65.92 69.38 74.37 60.93 84.79 60.93C95.21 60.93 103.65 69.38 103.65 79.8L103.65 79.8Z" />
				<path id="Path 1289" class="shp7" d="M90.45 94.89C80.03 94.89 71.58 86.44 71.58 76.02C71.58 70.7 73.79 65.89 77.34 62.46C70.62 65.35 65.92 72.02 65.92 79.8C65.92 90.22 74.37 98.67 84.79 98.67C89.88 98.67 94.5 96.64 97.89 93.36C95.61 94.35 93.09 94.89 90.45 94.89L90.45 94.89Z" />
				<path id="Path 1290" class="shp8" d="M45.16 19.54C40.19 19.54 35.35 20.93 31.17 23.57C30.34 24.09 30.09 25.18 30.61 26.01C31.13 26.84 32.23 27.08 33.05 26.56C36.67 24.28 40.86 23.08 45.16 23.08C57.71 23.08 67.92 33.29 67.92 45.84C67.92 58.39 57.71 68.59 45.16 68.59C32.62 68.59 22.41 58.39 22.41 45.84C22.41 40.6 24.13 35.68 27.4 31.61C28.01 30.85 27.89 29.73 27.12 29.12C26.36 28.51 25.25 28.64 24.64 29.4C20.92 34.04 18.87 39.88 18.87 45.84C18.87 60.34 30.66 72.13 45.16 72.13C59.67 72.13 71.46 60.34 71.46 45.84C71.46 31.34 59.67 19.54 45.16 19.54L45.16 19.54Z" />
				<path id="Path 1291" fill-rule="evenodd" class="shp8" d="M45.16 64.59C34.83 64.59 26.41 56.17 26.41 45.84C26.41 35.5 34.83 27.09 45.16 27.09C55.5 27.09 63.91 35.5 63.91 45.84C63.91 56.17 55.5 64.59 45.16 64.59ZM45.16 30.62C36.78 30.62 29.95 37.45 29.95 45.84C29.95 54.22 36.78 61.05 45.16 61.05C53.55 61.05 60.38 54.22 60.38 45.84C60.38 37.45 53.55 30.62 45.16 30.62Z" />
				<path id="Path 1292" fill-rule="evenodd" class="shp8" d="M50.83 47.6C47.77 47.6 45.28 45.12 45.28 42.06C45.28 39.01 47.77 36.52 50.83 36.52C53.88 36.52 56.37 39.01 56.37 42.06C56.37 45.12 53.88 47.6 50.83 47.6ZM50.83 40.06C49.72 40.06 48.82 40.96 48.82 42.06C48.82 43.17 49.72 44.07 50.83 44.07C51.93 44.07 52.83 43.17 52.83 42.06C52.83 40.96 51.93 40.06 50.83 40.06Z" />
				<path id="Path 1293" fill-rule="evenodd" class="shp8" d="M88.24 59.45C97.98 61.1 105.42 69.59 105.42 79.8C105.42 91.18 96.17 100.43 84.79 100.43C75.69 100.43 67.94 94.51 65.21 86.32C61.23 88.28 56.97 89.65 52.59 90.38L52.59 100.67L54.72 100.67C54.72 100.13 54.65 99.54 54.89 99.04C55.33 98.13 56.49 97.77 57.37 98.28C64.9 102.63 69.58 110.73 69.58 119.42C69.58 120.4 68.78 121.19 67.81 121.19L22.52 121.19C21.55 121.19 20.75 120.4 20.75 119.42C20.75 110.73 25.43 102.63 32.96 98.28C33.84 97.77 35 98.13 35.44 99.04C35.68 99.55 35.61 100.13 35.61 100.67L37.74 100.67L37.74 90.39C16.35 86.83 0 68.21 0 45.84C0 20.93 20.26 0.67 45.16 0.67C70.07 0.67 90.33 20.93 90.33 45.84C90.33 50.49 89.62 55.06 88.24 59.45ZM65.96 117.65C65.47 111.97 62.66 106.73 58.25 103.16L58.25 109.99C58.25 110.96 57.46 111.76 56.49 111.76L33.84 111.76C32.87 111.76 32.08 110.96 32.08 109.99L32.08 103.16C27.67 106.73 24.86 111.97 24.37 117.65L65.96 117.65ZM35.61 104.21L35.61 108.22L37.74 108.22L37.74 104.21L35.61 104.21ZM52.59 104.21L52.59 108.22L54.72 108.22L54.72 104.21L52.59 104.21ZM41.27 91L41.27 108.22L49.06 108.22L49.06 91L41.27 91ZM45.16 87.46C51.85 87.46 58.47 85.84 64.37 82.77C64.22 81.8 64.15 80.81 64.15 79.8C64.15 68.48 73.31 59.26 84.61 59.16C86.06 54.88 86.79 50.4 86.79 45.84C86.79 22.88 68.12 4.21 45.16 4.21C22.21 4.21 3.54 22.88 3.54 45.84C3.54 68.79 22.21 87.46 45.16 87.46ZM84.79 96.9C94.22 96.9 101.89 89.23 101.89 79.8C101.89 70.37 94.22 62.7 84.79 62.7C75.36 62.7 67.69 70.37 67.69 79.8C67.69 89.23 75.36 96.9 84.79 96.9Z" />
				<path id="Path 1294" class="shp8" d="M91.33 78.68C87.3 76.34 82.28 76.34 78.24 78.68C77.4 79.16 77.11 80.25 77.59 81.09C78.08 81.94 79.17 82.23 80.01 81.74C82.96 80.03 86.62 80.03 89.56 81.74C90.4 82.22 91.5 81.93 91.98 81.09C92.47 80.25 92.18 79.16 91.33 78.68L91.33 78.68Z" />
				<path id="Path 1295" class="shp8" d="M95.95 72.65C89.17 68.28 80.41 68.28 73.63 72.65C72.81 73.18 72.57 74.27 73.1 75.1C73.63 75.92 74.72 76.15 75.54 75.62C81.16 72.01 88.42 72.01 94.03 75.63C94.84 76.15 95.96 75.91 96.48 75.1C97.01 74.27 96.77 73.18 95.95 72.65L95.95 72.65Z" />
				<path id="Path 1296" class="shp8" d="M84.79 84.47C83.31 84.47 81.91 85.05 80.87 86.09C80.18 86.79 80.18 87.9 80.87 88.6C81.55 89.28 82.69 89.28 83.37 88.6C83.75 88.22 84.25 88.01 84.79 88.01C85.32 88.01 85.83 88.22 86.2 88.6C86.9 89.29 88.02 89.29 88.71 88.6C89.4 87.9 89.4 86.79 88.71 86.09C87.66 85.05 86.27 84.47 84.79 84.47L84.79 84.47Z" />
			</g>
		</g>
	</g>
</svg>