<svg xmlns="http://www.w3.org/2000/svg" viewBox="0 0 121 121" width="121" height="121">
	<defs>
		<clipPath clipPathUnits="userSpaceOnUse" id="cp1">
			<path d="M-446 -3461L1474 -3461L1474 4437L-446 4437Z" />
		</clipPath>
		<clipPath clipPathUnits="userSpaceOnUse" id="cp2">
			<path d="M0.62 0.47L120.53 0.47L120.53 120.38L0.62 120.38L0.62 0.47Z" />
		</clipPath>
	</defs>
	<style>
		tspan { white-space:pre }
		.shp0 { fill: #72d8ff } 
		.shp1 { fill: #6a80ff } 
		.shp2 { fill: #ffb954 } 
		.shp3 { fill: #ade5ff } 
		.shp4 { fill: #2e9de3 } 
		.shp5 { fill: #feda9b } 
		.shp6 { fill: #ffc66c } 
		.shp7 { fill: #000000 } 
	</style>
	<g id="Home Page" clip-path="url(#cp1)">
		<g id="Experience">
			<g id="Icon3">
				<path id="Path 1261" class="shp0" d="M107.06 39.72L95.58 39.72C89.44 39.72 84.46 44.7 84.46 50.84L84.46 69.94C84.46 73.65 87.46 76.65 91.17 76.65L111.47 76.65C115.18 76.65 118.18 73.65 118.18 69.94L118.18 50.84C118.18 44.7 113.21 39.72 107.06 39.72L107.06 39.72Z" />
				<path id="Rectangle 109" class="shp1" d="M8.12 34.01L24.37 34.01L24.37 89.33L8.12 89.33L8.12 34.01Z" />
				<path id="Path 1262" class="shp1" d="M16.24 69.22C8.91 69.22 2.96 75.17 2.96 82.51L2.96 118.03L29.53 118.03L29.53 82.51C29.53 75.17 23.58 69.22 16.24 69.22L16.24 69.22Z" />
				<path id="Rectangle 110" class="shp2" d="M92.89 76.65L109.75 76.65L109.75 118.03L92.89 118.03L92.89 76.65Z" />
				<path id="Path 1263" class="shp1" d="M45.5 4.64L62.5 21.64C64.41 23.55 64.41 26.64 62.5 28.55C60.59 30.45 57.5 30.45 55.59 28.55L43.04 16L45.5 4.64Z" />
				<path id="Path 1264" class="shp1" d="M15.83 25.45L36.63 4.65C39.08 2.2 43.06 2.2 45.51 4.65C47.96 7.1 47.96 11.08 45.51 13.53L24.79 34.25L15.83 25.45Z" />
				<path id="Path 1265" class="shp3" d="M47.34 9.06C47.34 12.52 44.54 15.32 41.09 15.32C37.63 15.32 34.83 12.52 34.83 9.06C34.83 5.61 37.63 2.81 41.09 2.81C44.54 2.81 47.34 5.61 47.34 9.06L47.34 9.06Z" />
				<path id="Path 1266" class="shp3" d="M24.37 34.01C24.37 38.49 20.73 42.13 16.24 42.13C11.76 42.13 8.12 38.49 8.12 34.01C8.12 29.52 11.76 25.88 16.24 25.88C20.73 25.88 24.37 29.52 24.37 34.01L24.37 34.01Z" />
				<path id="Path 1267" class="shp3" d="M21.86 82.27C21.86 85.37 19.35 87.89 16.24 87.89C13.14 87.89 10.62 85.37 10.62 82.27C10.62 79.17 13.14 76.65 16.24 76.65C19.35 76.65 21.86 79.17 21.86 82.27L21.86 82.27Z" />
				<path id="Path 1268" class="shp4" d="M97.34 85.62L26.14 85.62C21.62 85.62 17.95 81.95 17.95 77.42C17.95 72.89 21.62 69.22 26.14 69.22L97.34 69.22C101.87 69.22 105.54 72.89 105.54 77.42C105.54 81.95 101.87 85.62 97.34 85.62L97.34 85.62Z" />
				<path id="Path 1269" class="shp5" d="M101.32 39.72C96.92 39.72 93.36 36.16 93.36 31.76L93.36 26.51L109.28 26.51L109.28 31.76C109.28 36.16 105.72 39.72 101.32 39.72L101.32 39.72Z" />
				<path id="Path 1270" class="shp6" d="M101.32 16.28C96.07 16.28 91.82 20.54 91.82 25.78L91.82 26.51L110.82 26.51L110.82 25.78C110.82 20.54 106.57 16.28 101.32 16.28L101.32 16.28Z" />
				<path id="Rectangle 111" class="shp2" d="M37.49 52.36L54.35 52.36L54.35 69.22L37.49 69.22L37.49 52.36Z" />
				<path id="Rectangle 112" class="shp2" d="M68.53 52.36L85.4 52.36L85.4 69.22L68.53 69.22L68.53 52.36Z" />
				<g id="Group 305">
					<g id="Group 304" clip-path="url(#cp2)">
						<path id="Rectangle 113" class="shp3" d="M29.53 85.62L92.89 85.62L92.89 118.03L29.53 118.03L29.53 85.62Z" />
						<path id="Path 1271" fill-rule="evenodd" class="shp7" d="M109.77 37.65C115.9 38.91 120.53 44.34 120.53 50.84L120.53 69.94C120.53 74.72 116.8 78.65 112.09 78.97L112.09 118.03C112.09 119.33 111.05 120.38 109.75 120.38L2.96 120.38C1.67 120.38 0.62 119.33 0.62 118.03L0.62 82.51C0.62 77.91 2.61 73.78 5.77 70.91L5.77 63.46C5.77 62.17 6.82 61.12 8.12 61.12C9.41 61.12 10.46 62.17 10.46 63.46L10.46 67.99C12.25 67.28 14.2 66.88 16.24 66.88C18.12 66.88 19.96 67.21 21.7 67.86C21.81 67.81 21.92 67.76 22.03 67.72L22.03 42.72C20.37 43.83 18.38 44.47 16.24 44.47C14.11 44.47 12.12 43.83 10.46 42.72L10.46 46.13C10.46 47.43 9.41 48.48 8.12 48.48C6.82 48.48 5.77 47.43 5.77 46.13L5.77 34.01C5.77 28.92 9.42 24.67 14.24 23.73L34.97 2.99C38.33 -0.36 43.78 -0.37 47.14 2.98C47.15 2.98 47.15 2.98 47.16 2.99L64.15 19.98C65.52 21.35 66.27 23.16 66.27 25.09C66.27 27.02 65.52 28.84 64.15 30.2C63.41 30.94 62.55 31.49 61.63 31.84L61.63 35.96L66.52 40.86C66.96 41.29 67.21 41.89 67.21 42.51L67.21 46.49C67.21 47.78 66.16 48.83 64.86 48.83C63.57 48.83 62.52 47.78 62.52 46.49L62.52 43.48L59.28 40.24L56.04 43.48L56.04 46.84C56.04 48.13 55 49.18 53.7 49.18C52.41 49.18 51.36 48.13 51.36 46.84L51.36 42.51C51.36 41.89 51.61 41.29 52.05 40.86L56.94 35.96L56.94 32.01C55.84 31.67 54.8 31.07 53.93 30.2L43.04 19.31L26.71 35.63L26.71 66.88L35.15 66.88L35.15 52.36C35.15 51.07 36.19 50.02 37.49 50.02L54.35 50.02C55.64 50.02 56.69 51.07 56.69 52.36L56.69 66.88L66.19 66.88L66.19 52.36C66.19 51.07 67.24 50.02 68.53 50.02L82.14 50.02C82.52 43.89 87 38.85 92.87 37.65C91.7 35.98 91.02 33.95 91.02 31.76L91.02 28.71C90.12 28.38 89.48 27.52 89.48 26.51L89.48 25.78C89.48 19.25 94.79 13.94 101.32 13.94C107.85 13.94 113.17 19.25 113.17 25.78L113.17 26.51C113.17 27.52 112.52 28.38 111.63 28.71L111.63 31.76C111.63 33.95 110.94 35.98 109.77 37.65ZM101.45 37.38C104.49 37.31 106.94 34.82 106.94 31.76L106.94 28.85L95.7 28.85L95.7 31.76C95.7 34.82 98.15 37.31 101.2 37.38L101.45 37.38ZM108.3 24.17C107.74 21.76 105.97 19.82 103.66 19.02L103.66 24.17L108.3 24.17ZM98.98 19.02C96.68 19.82 94.9 21.76 94.35 24.17L98.98 24.17L98.98 19.02ZM26.14 71.56C22.92 71.56 20.29 74.19 20.29 77.42C20.29 80.65 22.92 83.27 26.14 83.27L97.34 83.27C100.57 83.27 103.2 80.65 103.2 77.42C103.2 74.19 100.57 71.56 97.34 71.56L26.14 71.56ZM95.23 115.69L98.98 115.69L98.98 87.83C98.45 87.91 97.9 87.96 97.34 87.96L95.23 87.96L95.23 115.69ZM5.3 115.69L27.19 115.69L27.19 87.96L26.14 87.96C24.84 87.96 23.59 87.72 22.43 87.28C20.94 89.13 18.68 90.23 16.24 90.23C11.85 90.23 8.28 86.66 8.28 82.27C8.28 77.94 11.76 74.4 16.07 74.31C16.37 73.35 16.8 72.44 17.35 71.62C16.98 71.58 16.62 71.56 16.24 71.56C10.21 71.56 5.3 76.47 5.3 82.51L5.3 115.69ZM70.88 66.88L83.05 66.88L83.05 54.7L70.88 54.7L70.88 66.88ZM39.83 66.88L52.01 66.88L52.01 54.7L39.83 54.7L39.83 66.88ZM35.01 15.14C34.01 14.14 33.31 12.95 32.9 11.69L20.26 24.34C22.76 25.38 24.78 27.37 25.86 29.86L38.47 17.25C37.18 16.84 35.99 16.13 35.01 15.14ZM61.59 25.09C61.59 24.41 61.32 23.78 60.84 23.3L49.28 11.73C48.86 13.02 48.15 14.2 47.16 15.18L46.35 16L57.25 26.89C58.24 27.88 59.85 27.88 60.84 26.89C61.32 26.41 61.59 25.77 61.59 25.09ZM43.85 6.31C42.36 4.81 39.96 4.78 38.42 6.19C38.39 6.22 38.36 6.26 38.32 6.3C36.79 7.82 36.79 10.3 38.32 11.83C39.85 13.36 42.33 13.36 43.85 11.83C43.91 11.77 43.98 11.72 44.04 11.66C44.66 10.95 45 10.05 45 9.09C45 8.04 44.6 7.05 43.85 6.31ZM16.24 39.79C19.43 39.79 22.03 37.2 22.03 34.01C22.03 30.81 19.43 28.22 16.24 28.22C13.05 28.22 10.46 30.81 10.46 34.01C10.46 37.2 13.05 39.79 16.24 39.79ZM15.73 79.04C14.17 79.28 12.97 80.64 12.97 82.27C12.97 84.08 14.44 85.55 16.24 85.55C17.1 85.55 17.9 85.22 18.49 84.65C17.06 83.14 16.06 81.19 15.73 79.04ZM90.55 87.96L31.87 87.96L31.87 94.52L59.28 94.52C60.58 94.52 61.63 95.56 61.63 96.86C61.63 98.15 60.58 99.2 59.28 99.2L31.87 99.2L31.87 115.69L90.55 115.69L90.55 87.96ZM107.41 115.69L107.41 80.53C106.75 82.67 105.42 84.52 103.66 85.84L103.66 115.69L107.41 115.69ZM115.84 50.84C115.84 46 111.9 42.06 107.06 42.06L101.45 42.06C101.41 42.06 101.36 42.07 101.32 42.07C101.28 42.07 101.24 42.06 101.2 42.06L95.58 42.06C90.86 42.06 86.99 45.82 86.81 50.5C87.37 50.92 87.74 51.6 87.74 52.36L87.74 66.88L90.55 66.88L90.55 54.35C90.55 53.05 91.6 52 92.89 52C94.18 52 95.23 53.05 95.23 54.35L95.23 66.88L97.34 66.88C102.07 66.88 106.08 70.01 107.41 74.31L107.41 54.35C107.41 53.05 108.46 52 109.75 52C111.05 52 112.09 53.05 112.09 54.35L112.09 74.26C114.21 73.96 115.84 72.14 115.84 69.94L115.84 50.84Z" />
					</g>
				</g>
				<path id="Path 1272" class="shp7" d="M8.12 57.84C8.73 57.84 9.34 57.59 9.77 57.16C10.21 56.72 10.46 56.12 10.46 55.5C10.46 54.89 10.21 54.28 9.77 53.85C9.34 53.41 8.73 53.16 8.12 53.16C7.5 53.16 6.9 53.41 6.46 53.85C6.02 54.28 5.77 54.89 5.77 55.5C5.77 56.12 6.02 56.72 6.46 57.16C6.9 57.59 7.5 57.84 8.12 57.84L8.12 57.84Z" />
				<path id="Path 1273" class="shp7" d="M16.24 31.66C15.63 31.66 15.02 31.91 14.59 32.35C14.15 32.79 13.9 33.39 13.9 34C13.9 34.62 14.15 35.22 14.59 35.66C15.02 36.1 15.63 36.35 16.24 36.35C16.86 36.35 17.46 36.1 17.9 35.66C18.34 35.22 18.59 34.62 18.59 34C18.59 33.39 18.34 32.79 17.9 32.35C17.46 31.91 16.86 31.66 16.24 31.66L16.24 31.66Z" />
				<path id="Path 1274" class="shp7" d="M39.43 10.72C39.87 11.15 40.47 11.4 41.09 11.4C41.7 11.4 42.31 11.15 42.74 10.72C43.18 10.28 43.43 9.68 43.43 9.06C43.43 8.45 43.18 7.84 42.74 7.41C42.31 6.97 41.7 6.72 41.09 6.72C40.47 6.72 39.87 6.97 39.43 7.41C38.99 7.84 38.75 8.45 38.75 9.06C38.75 9.68 38.99 10.28 39.43 10.72L39.43 10.72Z" />
				<path id="Path 1275" class="shp7" d="M47.92 75.08C47.31 75.08 46.7 75.33 46.27 75.76C45.83 76.2 45.58 76.8 45.58 77.42C45.58 78.03 45.83 78.64 46.27 79.07C46.7 79.51 47.31 79.76 47.92 79.76C48.54 79.76 49.15 79.51 49.58 79.07C50.02 78.64 50.27 78.03 50.27 77.42C50.27 76.8 50.02 76.2 49.58 75.76C49.15 75.33 48.54 75.08 47.92 75.08L47.92 75.08Z" />
				<path id="Path 1276" class="shp7" d="M32.94 75.08C32.32 75.08 31.72 75.33 31.28 75.76C30.84 76.2 30.59 76.8 30.59 77.42C30.59 78.04 30.84 78.64 31.28 79.07C31.72 79.51 32.32 79.76 32.94 79.76C33.55 79.76 34.16 79.51 34.59 79.07C35.03 78.64 35.28 78.04 35.28 77.42C35.28 76.8 35.03 76.2 34.59 75.76C34.16 75.33 33.55 75.08 32.94 75.08L32.94 75.08Z" />
				<path id="Path 1277" class="shp7" d="M92.89 79.76C93.51 79.76 94.11 79.51 94.55 79.07C94.98 78.64 95.23 78.04 95.23 77.42C95.23 76.8 94.98 76.2 94.55 75.76C94.11 75.33 93.51 75.08 92.89 75.08C92.27 75.08 91.67 75.33 91.23 75.76C90.8 76.2 90.55 76.8 90.55 77.42C90.55 78.04 90.8 78.64 91.23 79.07C91.67 79.51 92.27 79.76 92.89 79.76L92.89 79.76Z" />
				<path id="Path 1278" class="shp7" d="M62.91 75.08C62.3 75.08 61.69 75.33 61.26 75.76C60.82 76.2 60.57 76.8 60.57 77.42C60.57 78.03 60.82 78.64 61.26 79.07C61.69 79.51 62.3 79.76 62.91 79.76C63.53 79.76 64.13 79.51 64.57 79.07C65 78.64 65.26 78.04 65.26 77.42C65.26 76.8 65 76.2 64.57 75.76C64.13 75.33 63.53 75.08 62.91 75.08L62.91 75.08Z" />
				<path id="Path 1279" class="shp7" d="M77.9 75.08C77.29 75.08 76.68 75.33 76.25 75.76C75.81 76.2 75.56 76.8 75.56 77.42C75.56 78.03 75.81 78.64 76.25 79.07C76.68 79.51 77.29 79.76 77.9 79.76C78.52 79.76 79.12 79.51 79.56 79.07C79.99 78.64 80.24 78.03 80.24 77.42C80.24 76.8 79.99 76.2 79.56 75.76C79.12 75.33 78.52 75.08 77.9 75.08L77.9 75.08Z" />
				<path id="Path 1280" class="shp7" d="M68.28 99.2C68.89 99.2 69.5 98.95 69.93 98.51C70.37 98.08 70.62 97.47 70.62 96.86C70.62 96.24 70.37 95.64 69.93 95.2C69.5 94.76 68.89 94.51 68.28 94.51C67.66 94.51 67.06 94.76 66.62 95.2C66.18 95.64 65.93 96.24 65.93 96.86C65.93 97.47 66.18 98.08 66.62 98.51C67.06 98.95 67.66 99.2 68.28 99.2L68.28 99.2Z" />
			</g>
		</g>
	</g>
</svg>