<svg xmlns="http://www.w3.org/2000/svg" viewBox="0 0 14 16" width="14" height="16">
	<defs>
		<clipPath clipPathUnits="userSpaceOnUse" id="cp1">
			<path d="M-1010 -6120L910 -6120L910 1778L-1010 1778Z" />
		</clipPath>
	</defs>
	<style>
		tspan { white-space:pre }
		.shp0 { fill: #969ca2 } 
	</style>
	<g id="Home Page" clip-path="url(#cp1)">
		<g id="Blog_Post">
			<g id="Post2">
				<g id="Clock">
					<path id="Path 1" fill-rule="evenodd" class="shp0" d="M11.95 3.05C13.22 4.32 14 6.07 14 8C14 9.94 13.22 11.69 11.95 12.96C10.68 14.22 8.93 15.01 7 15.01C5.07 15.01 3.32 14.22 2.05 12.96C0.78 11.69 0 9.94 0 8C0 6.07 0.78 4.32 2.05 3.05C3.32 1.79 5.07 1 7 1C8.93 1 10.68 1.79 11.95 3.05ZM7 1.76C5.27 1.76 3.71 2.46 2.58 3.59C1.46 4.72 0.76 6.28 0.76 8C0.76 9.73 1.46 11.29 2.58 12.42C3.71 13.55 5.27 14.24 7 14.24C8.72 14.24 10.28 13.55 11.41 12.42C12.54 11.29 13.24 9.73 13.24 8C13.24 6.28 12.54 4.72 11.41 3.59C10.28 2.46 8.72 1.76 7 1.76ZM10.57 7.62C10.78 7.62 10.94 7.79 10.94 8C10.94 8.21 10.78 8.39 10.57 8.39L7 8.39C6.86 8.39 6.73 8.3 6.67 8.19L6.66 8.19L6.66 8.18L6.66 8.17L6.65 8.16L6.65 8.15L6.65 8.14L6.64 8.13L6.64 8.13L6.64 8.12L6.63 8.11L6.63 8.1L6.63 8.09L6.63 8.07L6.62 8.06L6.62 3.44C6.62 3.23 6.79 3.07 7 3.07C7.21 3.07 7.38 3.23 7.38 3.44L7.38 7.62L10.57 7.62Z" />
				</g>
			</g>
		</g>
	</g>
</svg>